<svg id="visual" viewBox="0 0 960 300" width="960" height="300" xmlns="http://www.w3.org/2000/svg" xmlns:xlink="http://www.w3.org/1999/xlink" version="1.1"><rect x="0" y="0" width="960" height="300" fill="#202731"></rect><path d="M0 120L22.8 114.5C45.7 109 91.3 98 137 91C182.7 84 228.3 81 274 85.7C319.7 90.3 365.3 102.7 411.2 103.8C457 105 503 95 548.8 95.5C594.7 96 640.3 107 686 107.2C731.7 107.3 777.3 96.7 823 89.7C868.7 82.7 914.3 79.3 937.2 77.7L960 76L960 0L937.2 0C914.3 0 868.7 0 823 0C777.3 0 731.7 0 686 0C640.3 0 594.7 0 548.8 0C503 0 457 0 411.2 0C365.3 0 319.7 0 274 0C228.3 0 182.7 0 137 0C91.3 0 45.7 0 22.8 0L0 0Z" fill="#ff6f61"></path><path d="M0 78L22.8 78.5C45.7 79 91.3 80 137 81.2C182.7 82.3 228.3 83.7 274 82.3C319.7 81 365.3 77 411.2 77.3C457 77.7 503 82.3 548.8 82.5C594.7 82.7 640.3 78.3 686 77.5C731.7 76.7 777.3 79.3 823 83.5C868.7 87.7 914.3 93.3 937.2 96.2L960 99L960 0L937.2 0C914.3 0 868.7 0 823 0C777.3 0 731.7 0 686 0C640.3 0 594.7 0 548.8 0C503 0 457 0 411.2 0C365.3 0 319.7 0 274 0C228.3 0 182.7 0 137 0C91.3 0 45.7 0 22.8 0L0 0Z" fill="#f76455"></path><path d="M0 61L22.8 60.5C45.7 60 91.3 59 137 60C182.7 61 228.3 64 274 64.7C319.7 65.3 365.3 63.7 411.2 61.8C457 60 503 58 548.8 60.5C594.7 63 640.3 70 686 69.5C731.7 69 777.3 61 823 55.7C868.7 50.3 914.3 47.7 937.2 46.3L960 45L960 0L937.2 0C914.3 0 868.7 0 823 0C777.3 0 731.7 0 686 0C640.3 0 594.7 0 548.8 0C503 0 457 0 411.2 0C365.3 0 319.7 0 274 0C228.3 0 182.7 0 137 0C91.3 0 45.7 0 22.8 0L0 0Z" fill="#ee5849"></path><path d="M0 53L22.8 51.7C45.7 50.3 91.3 47.7 137 46.7C182.7 45.7 228.3 46.3 274 45.8C319.7 45.3 365.3 43.7 411.2 45.2C457 46.7 503 51.3 548.8 50.7C594.7 50 640.3 44 686 41.2C731.7 38.3 777.3 38.7 823 38C868.7 37.3 914.3 35.7 937.2 34.8L960 34L960 0L937.2 0C914.3 0 868.7 0 823 0C777.3 0 731.7 0 686 0C640.3 0 594.7 0 548.8 0C503 0 457 0 411.2 0C365.3 0 319.7 0 274 0C228.3 0 182.7 0 137 0C91.3 0 45.7 0 22.8 0L0 0Z" fill="#e64c3d"></path><path d="M0 18L22.8 18.8C45.7 19.7 91.3 21.3 137 23C182.7 24.7 228.3 26.3 274 28.5C319.7 30.7 365.3 33.3 411.2 33.7C457 34 503 32 548.8 28.3C594.7 24.7 640.3 19.3 686 17.3C731.7 15.3 777.3 16.7 823 19.2C868.7 21.7 914.3 25.3 937.2 27.2L960 29L960 0L937.2 0C914.3 0 868.7 0 823 0C777.3 0 731.7 0 686 0C640.3 0 594.7 0 548.8 0C503 0 457 0 411.2 0C365.3 0 319.7 0 274 0C228.3 0 182.7 0 137 0C91.3 0 45.7 0 22.8 0L0 0Z" fill="#dd3f31"></path></svg>