<svg id="visual" viewBox="0 0 960 300" width="960" height="300" xmlns="http://www.w3.org/2000/svg" xmlns:xlink="http://www.w3.org/1999/xlink" version="1.1"><rect x="0" y="0" width="960" height="300" fill="#202731"></rect><path d="M0 187L14.5 192.7C29 198.3 58 209.7 87.2 204.8C116.3 200 145.7 179 174.8 171.2C204 163.3 233 168.7 262 180.3C291 192 320 210 349 216.7C378 223.3 407 218.7 436.2 216.3C465.3 214 494.7 214 523.8 199C553 184 582 154 611 146C640 138 669 152 698 150C727 148 756 130 785.2 135.7C814.3 141.3 843.7 170.7 872.8 178.3C902 186 931 172 945.5 165L960 158L960 301L945.5 301C931 301 902 301 872.8 301C843.7 301 814.3 301 785.2 301C756 301 727 301 698 301C669 301 640 301 611 301C582 301 553 301 523.8 301C494.7 301 465.3 301 436.2 301C407 301 378 301 349 301C320 301 291 301 262 301C233 301 204 301 174.8 301C145.7 301 116.3 301 87.2 301C58 301 29 301 14.5 301L0 301Z" fill="#ff6f61"></path><path d="M0 186L14.5 187.8C29 189.7 58 193.3 87.2 200.2C116.3 207 145.7 217 174.8 219.8C204 222.7 233 218.3 262 208.3C291 198.3 320 182.7 349 176.7C378 170.7 407 174.3 436.2 182.8C465.3 191.3 494.7 204.7 523.8 199.5C553 194.3 582 170.7 611 163.8C640 157 669 167 698 176.2C727 185.3 756 193.7 785.2 192.2C814.3 190.7 843.7 179.3 872.8 174C902 168.7 931 169.3 945.5 169.7L960 170L960 301L945.5 301C931 301 902 301 872.8 301C843.7 301 814.3 301 785.2 301C756 301 727 301 698 301C669 301 640 301 611 301C582 301 553 301 523.8 301C494.7 301 465.3 301 436.2 301C407 301 378 301 349 301C320 301 291 301 262 301C233 301 204 301 174.8 301C145.7 301 116.3 301 87.2 301C58 301 29 301 14.5 301L0 301Z" fill="#f46051"></path><path d="M0 227L14.5 231.7C29 236.3 58 245.7 87.2 246.2C116.3 246.7 145.7 238.3 174.8 230.8C204 223.3 233 216.7 262 213.5C291 210.3 320 210.7 349 215.7C378 220.7 407 230.3 436.2 237.8C465.3 245.3 494.7 250.7 523.8 244.2C553 237.7 582 219.3 611 210.7C640 202 669 203 698 201.7C727 200.3 756 196.7 785.2 200.2C814.3 203.7 843.7 214.3 872.8 227.5C902 240.7 931 256.3 945.5 264.2L960 272L960 301L945.5 301C931 301 902 301 872.8 301C843.7 301 814.3 301 785.2 301C756 301 727 301 698 301C669 301 640 301 611 301C582 301 553 301 523.8 301C494.7 301 465.3 301 436.2 301C407 301 378 301 349 301C320 301 291 301 262 301C233 301 204 301 174.8 301C145.7 301 116.3 301 87.2 301C58 301 29 301 14.5 301L0 301Z" fill="#e85041"></path><path d="M0 250L14.5 250.5C29 251 58 252 87.2 257.3C116.3 262.7 145.7 272.3 174.8 269.2C204 266 233 250 262 243.8C291 237.7 320 241.3 349 240.5C378 239.7 407 234.3 436.2 237.7C465.3 241 494.7 253 523.8 263.2C553 273.3 582 281.7 611 280.3C640 279 669 268 698 260.8C727 253.7 756 250.3 785.2 245C814.3 239.7 843.7 232.3 872.8 236.5C902 240.7 931 256.3 945.5 264.2L960 272L960 301L945.5 301C931 301 902 301 872.8 301C843.7 301 814.3 301 785.2 301C756 301 727 301 698 301C669 301 640 301 611 301C582 301 553 301 523.8 301C494.7 301 465.3 301 436.2 301C407 301 378 301 349 301C320 301 291 301 262 301C233 301 204 301 174.8 301C145.7 301 116.3 301 87.2 301C58 301 29 301 14.5 301L0 301Z" fill="#dd3f31"></path></svg>